<!DOCTYPE svg PUBLIC "-//W3C//DTD SVG 1.1//EN" "http://www.w3.org/Graphics/SVG/1.1/DTD/svg11.dtd">
<!-- Uploaded to: SVG Repo, www.svgrepo.com, Transformed by: SVG Repo Mixer Tools -->
<svg fill="#ffffff" width="64px" height="64px" viewBox="-7.2 -7.2 34.40 34.40" xmlns="http://www.w3.org/2000/svg" stroke="#ffffff" stroke-width="0.0002" transform="matrix(1, 0, 0, 1, 0, 0)rotate(0)">
<g id="SVGRepo_bgCarrier" stroke-width="0"/>
<g id="SVGRepo_iconCarrier">
<path d="M16.4 9H3.6c-.552 0-.6.447-.6 1 0 .553.048 1 .6 1h12.8c.552 0 .6-.447.6-1s-.048-1-.6-1zm0 4H3.6c-.552 0-.6.447-.6 1 0 .553.048 1 .6 1h12.8c.552 0 .6-.447.6-1s-.048-1-.6-1zM3.6 7h12.8c.552 0 .6-.447.6-1s-.048-1-.6-1H3.6c-.552 0-.6.447-.6 1s.048 1 .6 1z"/>
</g>
</svg>