<?xml version="1.0" standalone="no"?>
<!DOCTYPE svg PUBLIC "-//W3C//DTD SVG 20010904//EN"
 "http://www.w3.org/TR/2001/REC-SVG-20010904/DTD/svg10.dtd">
<svg version="1.0" xmlns="http://www.w3.org/2000/svg"
 width="500.000000pt" height="500.000000pt" viewBox="0 0 500.000000 500.000000"
 preserveAspectRatio="xMidYMid meet">
<metadata>
Created by potrace 1.16, written by Peter Selinger 2001-2019
</metadata>
<g transform="translate(0.000000,500.000000) scale(0.100000,-0.100000)"
fill="gray" stroke="none">
<path d="M0 2500 l0 -2500 2500 0 2500 0 0 2500 0 2500 -2500 0 -2500 0 0
-2500z m1704 892 c-133 -45 -239 -105 -348 -194 -203 -168 -245 -202 -311
-246 -122 -80 -506 -264 -522 -249 -2 3 24 16 59 30 263 106 478 238 668 412
98 88 193 154 288 198 79 36 229 86 257 86 11 0 -30 -17 -91 -37z m970 28
c269 -17 372 -35 539 -94 145 -51 353 -133 403 -159 18 -10 -81 -12 -499 -12
-382 0 -528 3 -543 12 -11 6 -58 46 -105 88 -46 42 -103 91 -126 108 -24 17
-43 36 -43 43 0 22 158 28 374 14z m-585 -41 c105 -18 165 -50 245 -131 40
-40 81 -89 93 -109 l21 -37 -61 -6 c-34 -3 -156 -8 -272 -11 -115 -3 -235 -8
-266 -11 l-57 -6 -32 56 c-17 31 -51 79 -75 108 -25 28 -42 54 -40 59 14 22
252 85 369 98 5 1 39 -4 75 -10z m-472 -134 c23 -16 113 -146 113 -162 0 -6
-70 -13 -163 -16 -89 -4 -187 -11 -216 -17 -30 -6 -56 -8 -59 -5 -11 11 130
135 198 173 83 46 96 49 127 27z m2233 -141 c219 -19 484 -58 601 -88 86 -21
204 -65 197 -71 -2 -2 -34 5 -73 15 -53 14 -106 19 -215 19 -175 -1 -234 -8
-238 -30 -2 -9 22 -63 53 -121 30 -58 55 -108 55 -112 0 -4 -17 14 -39 41 -54
69 -145 148 -224 195 -64 38 -80 43 -265 74 -240 40 -432 63 -617 73 -98 6
-121 9 -75 11 441 19 563 19 840 -6z m-204 -158 c46 -4 96 -37 119 -79 18 -34
19 -39 5 -64 -10 -18 -24 -28 -40 -29 -14 0 -35 -4 -47 -8 -58 -19 -172 52
-189 119 -6 24 -2 33 21 53 24 20 35 23 64 17 20 -4 50 -8 67 -9z m262 -3 c20
-9 44 -17 53 -18 21 -3 87 -53 99 -76 13 -23 13 -66 0 -74 -6 -4 -10 6 -10 22
0 33 -41 98 -73 114 -17 9 -15 4 10 -22 59 -63 67 -125 18 -147 -76 -35 -215
68 -215 159 0 59 45 75 118 42z m670 -3 c126 -30 135 -39 171 -170 30 -106 38
-103 -218 -92 l-214 8 -42 46 c-51 56 -107 161 -103 191 3 19 11 23 63 28 136
13 259 9 343 -11z m-1576 -142 c117 -35 198 -183 198 -365 0 -231 -105 -393
-255 -392 l-40 0 39 14 c120 42 196 225 183 440 -10 176 -73 277 -192 306
l-30 7 29 1 c16 1 46 -4 68 -11z m-1620 -220 c56 -59 59 -59 538 -88 l445 -28
-245 0 c-135 0 -349 3 -477 6 -268 8 -265 7 -297 110 -10 31 -21 64 -23 72 -3
8 4 2 15 -15 10 -16 31 -42 44 -57z m658 -180 l385 -13 -260 -5 c-143 -3 -381
-3 -530 -1 -251 4 -265 5 -200 16 96 17 161 17 605 3z m1641 -49 c48 -51 71
-55 436 -69 349 -13 647 8 758 54 20 9 39 16 40 16 2 0 8 -15 14 -32 23 -65
-41 -105 -200 -127 -146 -20 -541 -34 -804 -27 -210 5 -603 30 -611 39 -1 1
-4 44 -5 95 l-4 94 175 -7 174 -8 27 -28z m-443 -111 l7 -93 53 -5 53 -5 -48
-48 c-59 -57 -90 -67 -212 -67 l-95 0 52 26 c86 43 157 146 169 245 3 27 8 47
10 45 3 -3 8 -47 11 -98z m-1843 8 c198 -19 448 -42 555 -51 107 -8 245 -20
305 -25 83 -6 24 -8 -235 -5 l-345 3 -320 51 c-176 28 -327 53 -335 55 -39 10
39 4 375 -28z m3191 -145 c-16 -16 -58 -44 -95 -63 -62 -31 -72 -33 -171 -33
-115 0 -149 12 -235 79 l-39 31 244 5 c135 3 263 7 284 8 l40 2 -28 -29z"/>
</g>
</svg>
