<?xml version="1.0" encoding="utf-8"?>
<svg xmlns="http://www.w3.org/2000/svg" xmlns:xlink="http://www.w3.org/1999/xlink" xml:space="preserve" width="1023" height="1023" viewBox="0 0 1023 1023"><defs><linearGradient id="pattern-mask" x1="0%" y1="0%" x2="12%" y2="100%" gradientUnits="userSpaceOnUse"><stop offset="0%" stop-color="#ffd700"/><stop offset="100%" stop-color="#b2d458"/></linearGradient>
<mask id="qrmask"><g fill="#ffffff"><g>
<g transform="translate(310,62) scale(5.3216666666667)"><path d="M6,6H0V3c0-1.7,1.3-3,3-3l3,0V6z"/></g>
<g transform="translate(341,62) scale(5.3216666666667)"><rect width="6" height="6"/></g>
<g transform="translate(372,62) scale(5.3216666666667)"><path d="M3,6H0V0l3,0c1.7,0,3,1.3,3,3v0C6,4.7,4.7,6,3,6z"/></g>
<g transform="translate(434,62) scale(5.3216666666667)"><path d="M6,6H3C1.3,6,0,4.7,0,3v0c0-1.7,1.3-3,3-3h3C6,0,6,6,6,6z"/></g>
<g transform="translate(465,62) scale(5.3216666666667)"><rect width="6" height="6"/></g>
<g transform="translate(496,62) scale(5.3216666666667)"><rect width="6" height="6"/></g>
<g transform="translate(527,62) scale(5.3216666666667)"><rect width="6" height="6"/></g>
<g transform="translate(558,62) scale(5.3216666666667)"><path d="M6,6H0V0l3,0c1.7,0,3,1.3,3,3V6z"/></g>
<g transform="translate(620,62) scale(5.3216666666667)"><path d="M6,6H0V3c0-1.7,1.3-3,3-3h0c1.7,0,3,1.3,3,3V6z"/></g>
<g transform="translate(682,62) scale(5.3216666666667)"><circle cx="3" cy="3" r="3"/></g>
<g transform="translate(310,93) scale(5.3216666666667)"><rect width="6" height="6"/></g>
<g transform="translate(341,93) scale(5.3216666666667)"><path d="M3,6H0V0l6,0v3C6,4.7,4.7,6,3,6z"/></g>
<g transform="translate(465,93) scale(5.3216666666667)"><rect width="6" height="6"/></g>
<g transform="translate(527,93) scale(5.3216666666667)"><rect width="6" height="6"/></g>
<g transform="translate(558,93) scale(5.3216666666667)"><path d="M3,6H0V0l6,0v3C6,4.7,4.7,6,3,6z"/></g>
<g transform="translate(620,93) scale(5.3216666666667)"><rect width="6" height="6"/></g>
<g transform="translate(651,93) scale(5.3216666666667)"><path d="M6,6H0V0l3,0c1.7,0,3,1.3,3,3V6z"/></g>
<g transform="translate(310,124) scale(5.3216666666667)"><path d="M3,6L3,6C1.3,6,0,4.7,0,3V0h6v3C6,4.7,4.7,6,3,6z"/></g>
<g transform="translate(372,124) scale(5.3216666666667)"><path d="M6,6H0V3c0-1.7,1.3-3,3-3l3,0V6z"/></g>
<g transform="translate(403,124) scale(5.3216666666667)"><path d="M6,6H0V0l3,0c1.7,0,3,1.3,3,3V6z"/></g>
<g transform="translate(465,124) scale(5.3216666666667)"><path d="M6,6H3C1.3,6,0,4.7,0,3V0l6,0V6z"/></g>
<g transform="translate(496,124) scale(5.3216666666667)"><rect width="6" height="6"/></g>
<g transform="translate(527,124) scale(5.3216666666667)"><path d="M3,6H0V0l6,0v3C6,4.7,4.7,6,3,6z"/></g>
<g transform="translate(620,124) scale(5.3216666666667)"><rect width="6" height="6"/></g>
<g transform="translate(651,124) scale(5.3216666666667)"><rect width="6" height="6"/></g>
<g transform="translate(682,124) scale(5.3216666666667)"><path d="M6,6H0V0l3,0c1.7,0,3,1.3,3,3V6z"/></g>
<g transform="translate(372,155) scale(5.3216666666667)"><rect width="6" height="6"/></g>
<g transform="translate(403,155) scale(5.3216666666667)"><path d="M3,6H0V0l6,0v3C6,4.7,4.7,6,3,6z"/></g>
<g transform="translate(589,155) scale(5.3216666666667)"><path d="M6,6H3C1.3,6,0,4.7,0,3v0c0-1.7,1.3-3,3-3h3C6,0,6,6,6,6z"/></g>
<g transform="translate(620,155) scale(5.3216666666667)"><rect width="6" height="6"/></g>
<g transform="translate(651,155) scale(5.3216666666667)"><rect width="6" height="6"/></g>
<g transform="translate(682,155) scale(5.3216666666667)"><rect width="6" height="6"/></g>
<g transform="translate(372,186) scale(5.3216666666667)"><path d="M3,6L3,6C1.3,6,0,4.7,0,3V0h6v3C6,4.7,4.7,6,3,6z"/></g>
<g transform="translate(434,186) scale(5.3216666666667)"><path d="M6,6H0V3c0-1.7,1.3-3,3-3l3,0V6z"/></g>
<g transform="translate(465,186) scale(5.3216666666667)"><path d="M3,6H0V0l3,0c1.7,0,3,1.3,3,3v0C6,4.7,4.7,6,3,6z"/></g>
<g transform="translate(527,186) scale(5.3216666666667)"><circle cx="3" cy="3" r="3"/></g>
<g transform="translate(620,186) scale(5.3216666666667)"><rect width="6" height="6"/></g>
<g transform="translate(651,186) scale(5.3216666666667)"><rect width="6" height="6"/></g>
<g transform="translate(682,186) scale(5.3216666666667)"><path d="M3,6H0V0l6,0v3C6,4.7,4.7,6,3,6z"/></g>
<g transform="translate(310,217) scale(5.3216666666667)"><path d="M6,6H0V3c0-1.7,1.3-3,3-3l3,0V6z"/></g>
<g transform="translate(341,217) scale(5.3216666666667)"><path d="M3,6H0V0l3,0c1.7,0,3,1.3,3,3v0C6,4.7,4.7,6,3,6z"/></g>
<g transform="translate(434,217) scale(5.3216666666667)"><rect width="6" height="6"/></g>
<g transform="translate(496,217) scale(5.3216666666667)"><path d="M6,6H0V3c0-1.7,1.3-3,3-3h0c1.7,0,3,1.3,3,3V6z"/></g>
<g transform="translate(620,217) scale(5.3216666666667)"><rect width="6" height="6"/></g>
<g transform="translate(310,248) scale(5.3216666666667)"><rect width="6" height="6"/></g>
<g transform="translate(372,248) scale(5.3216666666667)"><circle cx="3" cy="3" r="3"/></g>
<g transform="translate(434,248) scale(5.3216666666667)"><rect width="6" height="6"/></g>
<g transform="translate(496,248) scale(5.3216666666667)"><rect width="6" height="6"/></g>
<g transform="translate(558,248) scale(5.3216666666667)"><path d="M6,6H0V3c0-1.7,1.3-3,3-3h0c1.7,0,3,1.3,3,3V6z"/></g>
<g transform="translate(620,248) scale(5.3216666666667)"><path d="M3,6L3,6C1.3,6,0,4.7,0,3V0h6v3C6,4.7,4.7,6,3,6z"/></g>
<g transform="translate(682,248) scale(5.3216666666667)"><circle cx="3" cy="3" r="3"/></g>
<g transform="translate(310,279) scale(5.3216666666667)"><rect width="6" height="6"/></g>
<g transform="translate(341,279) scale(5.3216666666667)"><path d="M3,6H0V0l3,0c1.7,0,3,1.3,3,3v0C6,4.7,4.7,6,3,6z"/></g>
<g transform="translate(403,279) scale(5.3216666666667)"><path d="M6,6H3C1.3,6,0,4.7,0,3v0c0-1.7,1.3-3,3-3h3C6,0,6,6,6,6z"/></g>
<g transform="translate(434,279) scale(5.3216666666667)"><rect width="6" height="6"/></g>
<g transform="translate(465,279) scale(5.3216666666667)"><rect width="6" height="6"/></g>
<g transform="translate(496,279) scale(5.3216666666667)"><rect width="6" height="6"/></g>
<g transform="translate(558,279) scale(5.3216666666667)"><path d="M3,6L3,6C1.3,6,0,4.7,0,3V0h6v3C6,4.7,4.7,6,3,6z"/></g>
<g transform="translate(651,279) scale(5.3216666666667)"><circle cx="3" cy="3" r="3"/></g>
<g transform="translate(124,310) scale(5.3216666666667)"><path d="M6,6H0V3c0-1.7,1.3-3,3-3l3,0V6z"/></g>
<g transform="translate(155,310) scale(5.3216666666667)"><rect width="6" height="6"/></g>
<g transform="translate(186,310) scale(5.3216666666667)"><path d="M3,6H0V0l3,0c1.7,0,3,1.3,3,3v0C6,4.7,4.7,6,3,6z"/></g>
<g transform="translate(248,310) scale(5.3216666666667)"><circle cx="3" cy="3" r="3"/></g>
<g transform="translate(310,310) scale(5.3216666666667)"><rect width="6" height="6"/></g>
<g transform="translate(372,310) scale(5.3216666666667)"><circle cx="3" cy="3" r="3"/></g>
<g transform="translate(434,310) scale(5.3216666666667)"><path d="M6,6H3C1.3,6,0,4.7,0,3V0l6,0V6z"/></g>
<g transform="translate(465,310) scale(5.3216666666667)"><rect width="6" height="6"/></g>
<g transform="translate(496,310) scale(5.3216666666667)"><path d="M3,6H0V0l6,0v3C6,4.7,4.7,6,3,6z"/></g>
<g transform="translate(620,310) scale(5.3216666666667)"><circle cx="3" cy="3" r="3"/></g>
<g transform="translate(682,310) scale(5.3216666666667)"><path d="M6,6H3C1.3,6,0,4.7,0,3v0c0-1.7,1.3-3,3-3h3C6,0,6,6,6,6z"/></g>
<g transform="translate(713,310) scale(5.3216666666667)"><rect width="6" height="6"/></g>
<g transform="translate(744,310) scale(5.3216666666667)"><rect width="6" height="6"/></g>
<g transform="translate(775,310) scale(5.3216666666667)"><path d="M6,6H0V0l3,0c1.7,0,3,1.3,3,3V6z"/></g>
<g transform="translate(868,310) scale(5.3216666666667)"><path d="M6,6H3C1.3,6,0,4.7,0,3v0c0-1.7,1.3-3,3-3h3C6,0,6,6,6,6z"/></g>
<g transform="translate(899,310) scale(5.3216666666667)"><rect width="6" height="6"/></g>
<g transform="translate(930,310) scale(5.3216666666667)"><path d="M6,6H0V0l3,0c1.7,0,3,1.3,3,3V6z"/></g>
<g transform="translate(62,341) scale(5.3216666666667)"><path d="M6,6H3C1.3,6,0,4.7,0,3v0c0-1.7,1.3-3,3-3h3C6,0,6,6,6,6z"/></g>
<g transform="translate(93,341) scale(5.3216666666667)"><rect width="6" height="6"/></g>
<g transform="translate(124,341) scale(5.3216666666667)"><path d="M3,6H0V0l6,0v3C6,4.7,4.7,6,3,6z"/></g>
<g transform="translate(217,341) scale(5.3216666666667)"><path d="M6,6H0V3c0-1.7,1.3-3,3-3h0c1.7,0,3,1.3,3,3V6z"/></g>
<g transform="translate(310,341) scale(5.3216666666667)"><path d="M6,6H3C1.3,6,0,4.7,0,3V0l6,0V6z"/></g>
<g transform="translate(341,341) scale(5.3216666666667)"><path d="M3,6H0V0l3,0c1.7,0,3,1.3,3,3v0C6,4.7,4.7,6,3,6z"/></g>
<g transform="translate(465,341) scale(5.3216666666667)"><path d="M3,6L3,6C1.3,6,0,4.7,0,3V0h6v3C6,4.7,4.7,6,3,6z"/></g>
<g transform="translate(527,341) scale(5.3216666666667)"><path d="M6,6H0V3c0-1.7,1.3-3,3-3h0c1.7,0,3,1.3,3,3V6z"/></g>
<g transform="translate(744,341) scale(5.3216666666667)"><rect width="6" height="6"/></g>
<g transform="translate(775,341) scale(5.3216666666667)"><rect width="6" height="6"/></g>
<g transform="translate(806,341) scale(5.3216666666667)"><path d="M3,6H0V0l3,0c1.7,0,3,1.3,3,3v0C6,4.7,4.7,6,3,6z"/></g>
<g transform="translate(930,341) scale(5.3216666666667)"><path d="M3,6L3,6C1.3,6,0,4.7,0,3V0h6v3C6,4.7,4.7,6,3,6z"/></g>
<g transform="translate(155,372) scale(5.3216666666667)"><circle cx="3" cy="3" r="3"/></g>
<g transform="translate(217,372) scale(5.3216666666667)"><rect width="6" height="6"/></g>
<g transform="translate(248,372) scale(5.3216666666667)"><rect width="6" height="6"/></g>
<g transform="translate(279,372) scale(5.3216666666667)"><path d="M3,6H0V0l3,0c1.7,0,3,1.3,3,3v0C6,4.7,4.7,6,3,6z"/></g>
<g transform="translate(372,372) scale(5.3216666666667)"><path d="M6,6H3C1.3,6,0,4.7,0,3v0c0-1.7,1.3-3,3-3h3C6,0,6,6,6,6z"/></g>
<g transform="translate(403,372) scale(5.3216666666667)"><path d="M3,6H0V0l3,0c1.7,0,3,1.3,3,3v0C6,4.7,4.7,6,3,6z"/></g>
<g transform="translate(527,372) scale(5.3216666666667)"><rect width="6" height="6"/></g>
<g transform="translate(589,372) scale(5.3216666666667)"><path d="M6,6H0V3c0-1.7,1.3-3,3-3h0c1.7,0,3,1.3,3,3V6z"/></g>
<g transform="translate(682,372) scale(5.3216666666667)"><path d="M6,6H3C1.3,6,0,4.7,0,3v0c0-1.7,1.3-3,3-3h3C6,0,6,6,6,6z"/></g>
<g transform="translate(713,372) scale(5.3216666666667)"><rect width="6" height="6"/></g>
<g transform="translate(744,372) scale(5.3216666666667)"><rect width="6" height="6"/></g>
<g transform="translate(837,372) scale(5.3216666666667)"><path d="M6,6H0V3c0-1.7,1.3-3,3-3l3,0V6z"/></g>
<g transform="translate(868,372) scale(5.3216666666667)"><path d="M3,6H0V0l3,0c1.7,0,3,1.3,3,3v0C6,4.7,4.7,6,3,6z"/></g>
<g transform="translate(217,403) scale(5.3216666666667)"><path d="M3,6L3,6C1.3,6,0,4.7,0,3V0h6v3C6,4.7,4.7,6,3,6z"/></g>
<g transform="translate(310,403) scale(5.3216666666667)"><path d="M6,6H3C1.3,6,0,4.7,0,3v0c0-1.7,1.3-3,3-3h3C6,0,6,6,6,6z"/></g>
<g transform="translate(341,403) scale(5.3216666666667)"><path d="M3,6H0V0l3,0c1.7,0,3,1.3,3,3v0C6,4.7,4.7,6,3,6z"/></g>
<g transform="translate(434,403) scale(5.3216666666667)"><path d="M6,6H0V3c0-1.7,1.3-3,3-3h0c1.7,0,3,1.3,3,3V6z"/></g>
<g transform="translate(496,403) scale(5.3216666666667)"><path d="M6,6H3C1.3,6,0,4.7,0,3v0c0-1.7,1.3-3,3-3h3C6,0,6,6,6,6z"/></g>
<g transform="translate(527,403) scale(5.3216666666667)"><path d="M3,6H0V0l6,0v3C6,4.7,4.7,6,3,6z"/></g>
<g transform="translate(589,403) scale(5.3216666666667)"><rect width="6" height="6"/></g>
<g transform="translate(620,403) scale(5.3216666666667)"><path d="M6,6H0V0l3,0c1.7,0,3,1.3,3,3V6z"/></g>
<g transform="translate(713,403) scale(5.3216666666667)"><rect width="6" height="6"/></g>
<g transform="translate(744,403) scale(5.3216666666667)"><path d="M3,6H0V0l6,0v3C6,4.7,4.7,6,3,6z"/></g>
<g transform="translate(806,403) scale(5.3216666666667)"><path d="M6,6H3C1.3,6,0,4.7,0,3v0c0-1.7,1.3-3,3-3h3C6,0,6,6,6,6z"/></g>
<g transform="translate(837,403) scale(5.3216666666667)"><rect width="6" height="6"/></g>
<g transform="translate(899,403) scale(5.3216666666667)"><path d="M6,6H0V3c0-1.7,1.3-3,3-3h0c1.7,0,3,1.3,3,3V6z"/></g>
<g transform="translate(62,434) scale(5.3216666666667)"><path d="M6,6H0V3c0-1.7,1.3-3,3-3l3,0V6z"/></g>
<g transform="translate(93,434) scale(5.3216666666667)"><rect width="6" height="6"/></g>
<g transform="translate(124,434) scale(5.3216666666667)"><rect width="6" height="6"/></g>
<g transform="translate(155,434) scale(5.3216666666667)"><rect width="6" height="6"/></g>
<g transform="translate(186,434) scale(5.3216666666667)"><path d="M3,6H0V0l3,0c1.7,0,3,1.3,3,3v0C6,4.7,4.7,6,3,6z"/></g>
<g transform="translate(248,434) scale(5.3216666666667)"><circle cx="3" cy="3" r="3"/></g>
<g transform="translate(372,434) scale(5.3216666666667)"><path d="M6,6H0V3c0-1.7,1.3-3,3-3l3,0V6z"/></g>
<g transform="translate(403,434) scale(5.3216666666667)"><rect width="6" height="6"/></g>
<g transform="translate(434,434) scale(5.3216666666667)"><rect width="6" height="6"/></g>
<g transform="translate(465,434) scale(5.3216666666667)"><path d="M3,6H0V0l3,0c1.7,0,3,1.3,3,3v0C6,4.7,4.7,6,3,6z"/></g>
<g transform="translate(558,434) scale(5.3216666666667)"><path d="M6,6H3C1.3,6,0,4.7,0,3v0c0-1.7,1.3-3,3-3h3C6,0,6,6,6,6z"/></g>
<g transform="translate(589,434) scale(5.3216666666667)"><rect width="6" height="6"/></g>
<g transform="translate(620,434) scale(5.3216666666667)"><path d="M3,6H0V0l6,0v3C6,4.7,4.7,6,3,6z"/></g>
<g transform="translate(713,434) scale(5.3216666666667)"><rect width="6" height="6"/></g>
<g transform="translate(775,434) scale(5.3216666666667)"><circle cx="3" cy="3" r="3"/></g>
<g transform="translate(837,434) scale(5.3216666666667)"><rect width="6" height="6"/></g>
<g transform="translate(868,434) scale(5.3216666666667)"><rect width="6" height="6"/></g>
<g transform="translate(899,434) scale(5.3216666666667)"><rect width="6" height="6"/></g>
<g transform="translate(930,434) scale(5.3216666666667)"><path d="M6,6H0V0l3,0c1.7,0,3,1.3,3,3V6z"/></g>
<g transform="translate(62,465) scale(5.3216666666667)"><rect width="6" height="6"/></g>
<g transform="translate(93,465) scale(5.3216666666667)"><rect width="6" height="6"/></g>
<g transform="translate(279,465) scale(5.3216666666667)"><path d="M6,6H3C1.3,6,0,4.7,0,3v0c0-1.7,1.3-3,3-3h3C6,0,6,6,6,6z"/></g>
<g transform="translate(310,465) scale(5.3216666666667)"><path d="M3,6H0V0l3,0c1.7,0,3,1.3,3,3v0C6,4.7,4.7,6,3,6z"/></g>
<g transform="translate(372,465) scale(5.3216666666667)"><path d="M6,6H3C1.3,6,0,4.7,0,3V0l6,0V6z"/></g>
<g transform="translate(403,465) scale(5.3216666666667)"><rect width="6" height="6"/></g>
<g transform="translate(434,465) scale(5.3216666666667)"><rect width="6" height="6"/></g>
<g transform="translate(496,465) scale(5.3216666666667)"><path d="M6,6H0V3c0-1.7,1.3-3,3-3l3,0V6z"/></g>
<g transform="translate(527,465) scale(5.3216666666667)"><path d="M6,6H0V0l3,0c1.7,0,3,1.3,3,3V6z"/></g>
<g transform="translate(589,465) scale(5.3216666666667)"><rect width="6" height="6"/></g>
<g transform="translate(651,465) scale(5.3216666666667)"><path d="M6,6H3C1.3,6,0,4.7,0,3v0c0-1.7,1.3-3,3-3h3C6,0,6,6,6,6z"/></g>
<g transform="translate(682,465) scale(5.3216666666667)"><rect width="6" height="6"/></g>
<g transform="translate(713,465) scale(5.3216666666667)"><rect width="6" height="6"/></g>
<g transform="translate(744,465) scale(5.3216666666667)"><path d="M3,6H0V0l3,0c1.7,0,3,1.3,3,3v0C6,4.7,4.7,6,3,6z"/></g>
<g transform="translate(806,465) scale(5.3216666666667)"><path d="M6,6H3C1.3,6,0,4.7,0,3v0c0-1.7,1.3-3,3-3h3C6,0,6,6,6,6z"/></g>
<g transform="translate(837,465) scale(5.3216666666667)"><path d="M3,6H0V0l6,0v3C6,4.7,4.7,6,3,6z"/></g>
<g transform="translate(930,465) scale(5.3216666666667)"><path d="M3,6L3,6C1.3,6,0,4.7,0,3V0h6v3C6,4.7,4.7,6,3,6z"/></g>
<g transform="translate(62,496) scale(5.3216666666667)"><path d="M6,6H3C1.3,6,0,4.7,0,3V0l6,0V6z"/></g>
<g transform="translate(93,496) scale(5.3216666666667)"><rect width="6" height="6"/></g>
<g transform="translate(186,496) scale(5.3216666666667)"><path d="M6,6H0V3c0-1.7,1.3-3,3-3h0c1.7,0,3,1.3,3,3V6z"/></g>
<g transform="translate(248,496) scale(5.3216666666667)"><circle cx="3" cy="3" r="3"/></g>
<g transform="translate(341,496) scale(5.3216666666667)"><circle cx="3" cy="3" r="3"/></g>
<g transform="translate(434,496) scale(5.3216666666667)"><rect width="6" height="6"/></g>
<g transform="translate(496,496) scale(5.3216666666667)"><path d="M6,6H3C1.3,6,0,4.7,0,3V0l6,0V6z"/></g>
<g transform="translate(527,496) scale(5.3216666666667)"><rect width="6" height="6"/></g>
<g transform="translate(558,496) scale(5.3216666666667)"><rect width="6" height="6"/></g>
<g transform="translate(589,496) scale(5.3216666666667)"><path d="M3,6H0V0l6,0v3C6,4.7,4.7,6,3,6z"/></g>
<g transform="translate(682,496) scale(5.3216666666667)"><path d="M3,6L3,6C1.3,6,0,4.7,0,3V0h6v3C6,4.7,4.7,6,3,6z"/></g>
<g transform="translate(775,496) scale(5.3216666666667)"><circle cx="3" cy="3" r="3"/></g>
<g transform="translate(93,527) scale(5.3216666666667)"><rect width="6" height="6"/></g>
<g transform="translate(186,527) scale(5.3216666666667)"><rect width="6" height="6"/></g>
<g transform="translate(217,527) scale(5.3216666666667)"><path d="M3,6H0V0l3,0c1.7,0,3,1.3,3,3v0C6,4.7,4.7,6,3,6z"/></g>
<g transform="translate(279,527) scale(5.3216666666667)"><path d="M6,6H0V3c0-1.7,1.3-3,3-3l3,0V6z"/></g>
<g transform="translate(310,527) scale(5.3216666666667)"><path d="M6,6H0V0l3,0c1.7,0,3,1.3,3,3V6z"/></g>
<g transform="translate(372,527) scale(5.3216666666667)"><path d="M6,6H0V3c0-1.7,1.3-3,3-3h0c1.7,0,3,1.3,3,3V6z"/></g>
<g transform="translate(434,527) scale(5.3216666666667)"><rect width="6" height="6"/></g>
<g transform="translate(620,527) scale(5.3216666666667)"><path d="M6,6H3C1.3,6,0,4.7,0,3v0c0-1.7,1.3-3,3-3h3C6,0,6,6,6,6z"/></g>
<g transform="translate(651,527) scale(5.3216666666667)"><path d="M3,6H0V0l3,0c1.7,0,3,1.3,3,3v0C6,4.7,4.7,6,3,6z"/></g>
<g transform="translate(806,527) scale(5.3216666666667)"><path d="M6,6H3C1.3,6,0,4.7,0,3v0c0-1.7,1.3-3,3-3h3C6,0,6,6,6,6z"/></g>
<g transform="translate(837,527) scale(5.3216666666667)"><path d="M6,6H0V0l3,0c1.7,0,3,1.3,3,3V6z"/></g>
<g transform="translate(899,527) scale(5.3216666666667)"><path d="M6,6H3C1.3,6,0,4.7,0,3v0c0-1.7,1.3-3,3-3h3C6,0,6,6,6,6z"/></g>
<g transform="translate(930,527) scale(5.3216666666667)"><path d="M6,6H0V0l3,0c1.7,0,3,1.3,3,3V6z"/></g>
<g transform="translate(62,558) scale(5.3216666666667)"><path d="M6,6H0V3c0-1.7,1.3-3,3-3l3,0V6z"/></g>
<g transform="translate(93,558) scale(5.3216666666667)"><rect width="6" height="6"/></g>
<g transform="translate(124,558) scale(5.3216666666667)"><path d="M6,6H0V0l3,0c1.7,0,3,1.3,3,3V6z"/></g>
<g transform="translate(186,558) scale(5.3216666666667)"><rect width="6" height="6"/></g>
<g transform="translate(248,558) scale(5.3216666666667)"><path d="M6,6H3C1.3,6,0,4.7,0,3v0c0-1.7,1.3-3,3-3h3C6,0,6,6,6,6z"/></g>
<g transform="translate(279,558) scale(5.3216666666667)"><rect width="6" height="6"/></g>
<g transform="translate(310,558) scale(5.3216666666667)"><rect width="6" height="6"/></g>
<g transform="translate(372,558) scale(5.3216666666667)"><path d="M6,6H3C1.3,6,0,4.7,0,3V0l6,0V6z"/></g>
<g transform="translate(403,558) scale(5.3216666666667)"><rect width="6" height="6"/></g>
<g transform="translate(434,558) scale(5.3216666666667)"><rect width="6" height="6"/></g>
<g transform="translate(465,558) scale(5.3216666666667)"><path d="M6,6H0V0l3,0c1.7,0,3,1.3,3,3V6z"/></g>
<g transform="translate(558,558) scale(5.3216666666667)"><path d="M6,6H0V3c0-1.7,1.3-3,3-3h0c1.7,0,3,1.3,3,3V6z"/></g>
<g transform="translate(713,558) scale(5.3216666666667)"><path d="M6,6H0V3c0-1.7,1.3-3,3-3h0c1.7,0,3,1.3,3,3V6z"/></g>
<g transform="translate(775,558) scale(5.3216666666667)"><path d="M6,6H0V3c0-1.7,1.3-3,3-3h0c1.7,0,3,1.3,3,3V6z"/></g>
<g transform="translate(837,558) scale(5.3216666666667)"><path d="M6,6H3C1.3,6,0,4.7,0,3V0l6,0V6z"/></g>
<g transform="translate(868,558) scale(5.3216666666667)"><path d="M3,6H0V0l3,0c1.7,0,3,1.3,3,3v0C6,4.7,4.7,6,3,6z"/></g>
<g transform="translate(930,558) scale(5.3216666666667)"><rect width="6" height="6"/></g>
<g transform="translate(62,589) scale(5.3216666666667)"><rect width="6" height="6"/></g>
<g transform="translate(93,589) scale(5.3216666666667)"><rect width="6" height="6"/></g>
<g transform="translate(124,589) scale(5.3216666666667)"><path d="M3,6H0V0l6,0v3C6,4.7,4.7,6,3,6z"/></g>
<g transform="translate(186,589) scale(5.3216666666667)"><path d="M6,6H3C1.3,6,0,4.7,0,3V0l6,0V6z"/></g>
<g transform="translate(217,589) scale(5.3216666666667)"><path d="M6,6H0V0l3,0c1.7,0,3,1.3,3,3V6z"/></g>
<g transform="translate(310,589) scale(5.3216666666667)"><rect width="6" height="6"/></g>
<g transform="translate(341,589) scale(5.3216666666667)"><path d="M6,6H0V0l3,0c1.7,0,3,1.3,3,3V6z"/></g>
<g transform="translate(403,589) scale(5.3216666666667)"><path d="M3,6L3,6C1.3,6,0,4.7,0,3V0h6v3C6,4.7,4.7,6,3,6z"/></g>
<g transform="translate(465,589) scale(5.3216666666667)"><rect width="6" height="6"/></g>
<g transform="translate(496,589) scale(5.3216666666667)"><path d="M6,6H0V0l3,0c1.7,0,3,1.3,3,3V6z"/></g>
<g transform="translate(558,589) scale(5.3216666666667)"><path d="M3,6L3,6C1.3,6,0,4.7,0,3V0h6v3C6,4.7,4.7,6,3,6z"/></g>
<g transform="translate(682,589) scale(5.3216666666667)"><path d="M6,6H3C1.3,6,0,4.7,0,3v0c0-1.7,1.3-3,3-3h3C6,0,6,6,6,6z"/></g>
<g transform="translate(713,589) scale(5.3216666666667)"><rect width="6" height="6"/></g>
<g transform="translate(744,589) scale(5.3216666666667)"><rect width="6" height="6"/></g>
<g transform="translate(775,589) scale(5.3216666666667)"><rect width="6" height="6"/></g>
<g transform="translate(806,589) scale(5.3216666666667)"><path d="M3,6H0V0l3,0c1.7,0,3,1.3,3,3v0C6,4.7,4.7,6,3,6z"/></g>
<g transform="translate(899,589) scale(5.3216666666667)"><path d="M6,6H3C1.3,6,0,4.7,0,3v0c0-1.7,1.3-3,3-3h3C6,0,6,6,6,6z"/></g>
<g transform="translate(930,589) scale(5.3216666666667)"><path d="M3,6H0V0l6,0v3C6,4.7,4.7,6,3,6z"/></g>
<g transform="translate(62,620) scale(5.3216666666667)"><rect width="6" height="6"/></g>
<g transform="translate(217,620) scale(5.3216666666667)"><rect width="6" height="6"/></g>
<g transform="translate(248,620) scale(5.3216666666667)"><rect width="6" height="6"/></g>
<g transform="translate(279,620) scale(5.3216666666667)"><rect width="6" height="6"/></g>
<g transform="translate(310,620) scale(5.3216666666667)"><rect width="6" height="6"/></g>
<g transform="translate(341,620) scale(5.3216666666667)"><rect width="6" height="6"/></g>
<g transform="translate(434,620) scale(5.3216666666667)"><path d="M6,6H3C1.3,6,0,4.7,0,3v0c0-1.7,1.3-3,3-3h3C6,0,6,6,6,6z"/></g>
<g transform="translate(465,620) scale(5.3216666666667)"><rect width="6" height="6"/></g>
<g transform="translate(496,620) scale(5.3216666666667)"><path d="M3,6H0V0l6,0v3C6,4.7,4.7,6,3,6z"/></g>
<g transform="translate(651,620) scale(5.3216666666667)"><path d="M6,6H0V3c0-1.7,1.3-3,3-3h0c1.7,0,3,1.3,3,3V6z"/></g>
<g transform="translate(744,620) scale(5.3216666666667)"><rect width="6" height="6"/></g>
<g transform="translate(62,651) scale(5.3216666666667)"><rect width="6" height="6"/></g>
<g transform="translate(155,651) scale(5.3216666666667)"><circle cx="3" cy="3" r="3"/></g>
<g transform="translate(217,651) scale(5.3216666666667)"><rect width="6" height="6"/></g>
<g transform="translate(341,651) scale(5.3216666666667)"><path d="M6,6H3C1.3,6,0,4.7,0,3V0l6,0V6z"/></g>
<g transform="translate(372,651) scale(5.3216666666667)"><rect width="6" height="6"/></g>
<g transform="translate(403,651) scale(5.3216666666667)"><path d="M3,6H0V0l3,0c1.7,0,3,1.3,3,3v0C6,4.7,4.7,6,3,6z"/></g>
<g transform="translate(465,651) scale(5.3216666666667)"><path d="M3,6L3,6C1.3,6,0,4.7,0,3V0h6v3C6,4.7,4.7,6,3,6z"/></g>
<g transform="translate(589,651) scale(5.3216666666667)"><circle cx="3" cy="3" r="3"/></g>
<g transform="translate(651,651) scale(5.3216666666667)"><rect width="6" height="6"/></g>
<g transform="translate(682,651) scale(5.3216666666667)"><path d="M6,6H0V0l3,0c1.7,0,3,1.3,3,3V6z"/></g>
<g transform="translate(744,651) scale(5.3216666666667)"><rect width="6" height="6"/></g>
<g transform="translate(775,651) scale(5.3216666666667)"><path d="M6,6H0V0l3,0c1.7,0,3,1.3,3,3V6z"/></g>
<g transform="translate(837,651) scale(5.3216666666667)"><circle cx="3" cy="3" r="3"/></g>
<g transform="translate(899,651) scale(5.3216666666667)"><circle cx="3" cy="3" r="3"/></g>
<g transform="translate(62,682) scale(5.3216666666667)"><path d="M3,6L3,6C1.3,6,0,4.7,0,3V0h6v3C6,4.7,4.7,6,3,6z"/></g>
<g transform="translate(124,682) scale(5.3216666666667)"><circle cx="3" cy="3" r="3"/></g>
<g transform="translate(186,682) scale(5.3216666666667)"><path d="M6,6H3C1.3,6,0,4.7,0,3v0c0-1.7,1.3-3,3-3h3C6,0,6,6,6,6z"/></g>
<g transform="translate(217,682) scale(5.3216666666667)"><rect width="6" height="6"/></g>
<g transform="translate(248,682) scale(5.3216666666667)"><path d="M3,6H0V0l3,0c1.7,0,3,1.3,3,3v0C6,4.7,4.7,6,3,6z"/></g>
<g transform="translate(310,682) scale(5.3216666666667)"><path d="M6,6H0V3c0-1.7,1.3-3,3-3h0c1.7,0,3,1.3,3,3V6z"/></g>
<g transform="translate(527,682) scale(5.3216666666667)"><path d="M6,6H0V3c0-1.7,1.3-3,3-3h0c1.7,0,3,1.3,3,3V6z"/></g>
<g transform="translate(620,682) scale(5.3216666666667)"><path d="M6,6H3C1.3,6,0,4.7,0,3v0c0-1.7,1.3-3,3-3h3C6,0,6,6,6,6z"/></g>
<g transform="translate(651,682) scale(5.3216666666667)"><rect width="6" height="6"/></g>
<g transform="translate(682,682) scale(5.3216666666667)"><rect width="6" height="6"/></g>
<g transform="translate(713,682) scale(5.3216666666667)"><rect width="6" height="6"/></g>
<g transform="translate(744,682) scale(5.3216666666667)"><rect width="6" height="6"/></g>
<g transform="translate(775,682) scale(5.3216666666667)"><rect width="6" height="6"/></g>
<g transform="translate(806,682) scale(5.3216666666667)"><path d="M6,6H0V0l3,0c1.7,0,3,1.3,3,3V6z"/></g>
<g transform="translate(868,682) scale(5.3216666666667)"><circle cx="3" cy="3" r="3"/></g>
<g transform="translate(310,713) scale(5.3216666666667)"><path d="M3,6L3,6C1.3,6,0,4.7,0,3V0h6v3C6,4.7,4.7,6,3,6z"/></g>
<g transform="translate(434,713) scale(5.3216666666667)"><path d="M6,6H0V3c0-1.7,1.3-3,3-3h0c1.7,0,3,1.3,3,3V6z"/></g>
<g transform="translate(496,713) scale(5.3216666666667)"><path d="M6,6H0V3c0-1.7,1.3-3,3-3l3,0V6z"/></g>
<g transform="translate(527,713) scale(5.3216666666667)"><rect width="6" height="6"/></g>
<g transform="translate(651,713) scale(5.3216666666667)"><rect width="6" height="6"/></g>
<g transform="translate(682,713) scale(5.3216666666667)"><rect width="6" height="6"/></g>
<g transform="translate(806,713) scale(5.3216666666667)"><rect width="6" height="6"/></g>
<g transform="translate(837,713) scale(5.3216666666667)"><path d="M3,6H0V0l3,0c1.7,0,3,1.3,3,3v0C6,4.7,4.7,6,3,6z"/></g>
<g transform="translate(899,713) scale(5.3216666666667)"><path d="M6,6H3C1.3,6,0,4.7,0,3v0c0-1.7,1.3-3,3-3h3C6,0,6,6,6,6z"/></g>
<g transform="translate(930,713) scale(5.3216666666667)"><path d="M3,6H0V0l3,0c1.7,0,3,1.3,3,3v0C6,4.7,4.7,6,3,6z"/></g>
<g transform="translate(372,744) scale(5.3216666666667)"><path d="M6,6H0V3c0-1.7,1.3-3,3-3h0c1.7,0,3,1.3,3,3V6z"/></g>
<g transform="translate(434,744) scale(5.3216666666667)"><path d="M6,6H3C1.3,6,0,4.7,0,3V0l6,0V6z"/></g>
<g transform="translate(465,744) scale(5.3216666666667)"><rect width="6" height="6"/></g>
<g transform="translate(496,744) scale(5.3216666666667)"><rect width="6" height="6"/></g>
<g transform="translate(527,744) scale(5.3216666666667)"><path d="M3,6H0V0l6,0v3C6,4.7,4.7,6,3,6z"/></g>
<g transform="translate(589,744) scale(5.3216666666667)"><path d="M6,6H3C1.3,6,0,4.7,0,3v0c0-1.7,1.3-3,3-3h3C6,0,6,6,6,6z"/></g>
<g transform="translate(620,744) scale(5.3216666666667)"><rect width="6" height="6"/></g>
<g transform="translate(651,744) scale(5.3216666666667)"><rect width="6" height="6"/></g>
<g transform="translate(682,744) scale(5.3216666666667)"><rect width="6" height="6"/></g>
<g transform="translate(744,744) scale(5.3216666666667)"><circle cx="3" cy="3" r="3"/></g>
<g transform="translate(806,744) scale(5.3216666666667)"><rect width="6" height="6"/></g>
<g transform="translate(372,775) scale(5.3216666666667)"><rect width="6" height="6"/></g>
<g transform="translate(496,775) scale(5.3216666666667)"><rect width="6" height="6"/></g>
<g transform="translate(558,775) scale(5.3216666666667)"><circle cx="3" cy="3" r="3"/></g>
<g transform="translate(620,775) scale(5.3216666666667)"><path d="M6,6H3C1.3,6,0,4.7,0,3V0l6,0V6z"/></g>
<g transform="translate(651,775) scale(5.3216666666667)"><rect width="6" height="6"/></g>
<g transform="translate(682,775) scale(5.3216666666667)"><rect width="6" height="6"/></g>
<g transform="translate(806,775) scale(5.3216666666667)"><rect width="6" height="6"/></g>
<g transform="translate(837,775) scale(5.3216666666667)"><path d="M6,6H0V0l3,0c1.7,0,3,1.3,3,3V6z"/></g>
<g transform="translate(899,775) scale(5.3216666666667)"><path d="M6,6H3C1.3,6,0,4.7,0,3v0c0-1.7,1.3-3,3-3h3C6,0,6,6,6,6z"/></g>
<g transform="translate(930,775) scale(5.3216666666667)"><path d="M6,6H0V0l3,0c1.7,0,3,1.3,3,3V6z"/></g>
<g transform="translate(310,806) scale(5.3216666666667)"><path d="M6,6H0V3c0-1.7,1.3-3,3-3h0c1.7,0,3,1.3,3,3V6z"/></g>
<g transform="translate(372,806) scale(5.3216666666667)"><rect width="6" height="6"/></g>
<g transform="translate(434,806) scale(5.3216666666667)"><path d="M6,6H0V3c0-1.7,1.3-3,3-3h0c1.7,0,3,1.3,3,3V6z"/></g>
<g transform="translate(496,806) scale(5.3216666666667)"><rect width="6" height="6"/></g>
<g transform="translate(527,806) scale(5.3216666666667)"><path d="M6,6H0V0l3,0c1.7,0,3,1.3,3,3V6z"/></g>
<g transform="translate(682,806) scale(5.3216666666667)"><rect width="6" height="6"/></g>
<g transform="translate(713,806) scale(5.3216666666667)"><rect width="6" height="6"/></g>
<g transform="translate(744,806) scale(5.3216666666667)"><rect width="6" height="6"/></g>
<g transform="translate(775,806) scale(5.3216666666667)"><rect width="6" height="6"/></g>
<g transform="translate(806,806) scale(5.3216666666667)"><rect width="6" height="6"/></g>
<g transform="translate(837,806) scale(5.3216666666667)"><rect width="6" height="6"/></g>
<g transform="translate(868,806) scale(5.3216666666667)"><path d="M6,6H0V0l3,0c1.7,0,3,1.3,3,3V6z"/></g>
<g transform="translate(930,806) scale(5.3216666666667)"><path d="M3,6L3,6C1.3,6,0,4.7,0,3V0h6v3C6,4.7,4.7,6,3,6z"/></g>
<g transform="translate(310,837) scale(5.3216666666667)"><rect width="6" height="6"/></g>
<g transform="translate(341,837) scale(5.3216666666667)"><rect width="6" height="6"/></g>
<g transform="translate(372,837) scale(5.3216666666667)"><path d="M3,6H0V0l6,0v3C6,4.7,4.7,6,3,6z"/></g>
<g transform="translate(434,837) scale(5.3216666666667)"><path d="M6,6H3C1.3,6,0,4.7,0,3V0l6,0V6z"/></g>
<g transform="translate(465,837) scale(5.3216666666667)"><rect width="6" height="6"/></g>
<g transform="translate(496,837) scale(5.3216666666667)"><rect width="6" height="6"/></g>
<g transform="translate(527,837) scale(5.3216666666667)"><path d="M3,6H0V0l6,0v3C6,4.7,4.7,6,3,6z"/></g>
<g transform="translate(651,837) scale(5.3216666666667)"><path d="M6,6H0V3c0-1.7,1.3-3,3-3l3,0V6z"/></g>
<g transform="translate(682,837) scale(5.3216666666667)"><rect width="6" height="6"/></g>
<g transform="translate(713,837) scale(5.3216666666667)"><rect width="6" height="6"/></g>
<g transform="translate(775,837) scale(5.3216666666667)"><rect width="6" height="6"/></g>
<g transform="translate(868,837) scale(5.3216666666667)"><rect width="6" height="6"/></g>
<g transform="translate(310,868) scale(5.3216666666667)"><path d="M3,6L3,6C1.3,6,0,4.7,0,3V0h6v3C6,4.7,4.7,6,3,6z"/></g>
<g transform="translate(589,868) scale(5.3216666666667)"><circle cx="3" cy="3" r="3"/></g>
<g transform="translate(651,868) scale(5.3216666666667)"><path d="M6,6H3C1.3,6,0,4.7,0,3V0l6,0V6z"/></g>
<g transform="translate(682,868) scale(5.3216666666667)"><rect width="6" height="6"/></g>
<g transform="translate(713,868) scale(5.3216666666667)"><rect width="6" height="6"/></g>
<g transform="translate(744,868) scale(5.3216666666667)"><rect width="6" height="6"/></g>
<g transform="translate(775,868) scale(5.3216666666667)"><rect width="6" height="6"/></g>
<g transform="translate(806,868) scale(5.3216666666667)"><rect width="6" height="6"/></g>
<g transform="translate(837,868) scale(5.3216666666667)"><rect width="6" height="6"/></g>
<g transform="translate(868,868) scale(5.3216666666667)"><rect width="6" height="6"/></g>
<g transform="translate(899,868) scale(5.3216666666667)"><path d="M6,6H0V0l3,0c1.7,0,3,1.3,3,3V6z"/></g>
<g transform="translate(372,899) scale(5.3216666666667)"><path d="M6,6H0V3c0-1.7,1.3-3,3-3l3,0V6z"/></g>
<g transform="translate(403,899) scale(5.3216666666667)"><path d="M6,6H0V0l3,0c1.7,0,3,1.3,3,3V6z"/></g>
<g transform="translate(527,899) scale(5.3216666666667)"><circle cx="3" cy="3" r="3"/></g>
<g transform="translate(620,899) scale(5.3216666666667)"><path d="M6,6H0V3c0-1.7,1.3-3,3-3h0c1.7,0,3,1.3,3,3V6z"/></g>
<g transform="translate(744,899) scale(5.3216666666667)"><rect width="6" height="6"/></g>
<g transform="translate(806,899) scale(5.3216666666667)"><rect width="6" height="6"/></g>
<g transform="translate(899,899) scale(5.3216666666667)"><path d="M3,6L3,6C1.3,6,0,4.7,0,3V0h6v3C6,4.7,4.7,6,3,6z"/></g>
<g transform="translate(372,930) scale(5.3216666666667)"><path d="M6,6H3C1.3,6,0,4.7,0,3V0l6,0V6z"/></g>
<g transform="translate(403,930) scale(5.3216666666667)"><path d="M3,6H0V0l6,0v3C6,4.7,4.7,6,3,6z"/></g>
<g transform="translate(496,930) scale(5.3216666666667)"><circle cx="3" cy="3" r="3"/></g>
<g transform="translate(558,930) scale(5.3216666666667)"><circle cx="3" cy="3" r="3"/></g>
<g transform="translate(620,930) scale(5.3216666666667)"><path d="M3,6L3,6C1.3,6,0,4.7,0,3V0h6v3C6,4.7,4.7,6,3,6z"/></g>
<g transform="translate(744,930) scale(5.3216666666667)"><path d="M3,6L3,6C1.3,6,0,4.7,0,3V0h6v3C6,4.7,4.7,6,3,6z"/></g>
<g transform="translate(806,930) scale(5.3216666666667)"><path d="M3,6L3,6C1.3,6,0,4.7,0,3V0h6v3C6,4.7,4.7,6,3,6z"/></g>
<g transform="translate(868,930) scale(5.3216666666667)"><circle cx="3" cy="3" r="3"/></g>
<g transform="translate(62,62)"><g transform="scale(15.5)"><path d="M14,14V4.4C14,2,12,0,9.6,0H4.4C2,0,0,2,0,4.4v5.1C0,12,2,14,4.4,14H14z M4.8,2h4.4C10.7,2,12,3.3,12,4.8V12H4.8 C3.3,12,2,10.7,2,9.2V4.8C2,3.3,3.3,2,4.8,2z"/></g></g>
<g transform="translate(744,62)"><g transform="scale(15.5) rotate(90 7 7)"><path d="M14,14V4.4C14,2,12,0,9.6,0H4.4C2,0,0,2,0,4.4v5.1C0,12,2,14,4.4,14H14z M4.8,2h4.4C10.7,2,12,3.3,12,4.8V12H4.8 C3.3,12,2,10.7,2,9.2V4.8C2,3.3,3.3,2,4.8,2z"/></g></g>
<g transform="translate(62,744)"><g transform="scale(15.5) rotate(-90 7 7)"><path d="M14,14V4.4C14,2,12,0,9.6,0H4.4C2,0,0,2,0,4.4v5.1C0,12,2,14,4.4,14H14z M4.8,2h4.4C10.7,2,12,3.3,12,4.8V12H4.8 C3.3,12,2,10.7,2,9.2V4.8C2,3.3,3.3,2,4.8,2z"/></g></g>
<g transform="translate(124,124)"><g transform="scale(15.5)"><circle cx="3" cy="3" r="3"/></g></g>
<g transform="translate(806,124)"><g transform="scale(15.5)"><circle cx="3" cy="3" r="3"/></g></g>
<g transform="translate(124,806)"><g transform="scale(15.5)"><circle cx="3" cy="3" r="3"/></g></g>
</g></g></mask></defs><rect x="0" y="0" width="1023" height="1023" mask="url(#qrmask)" fill="url(#pattern-mask)"/></svg>
